<svg width="800" height="800" viewBox="0 0 800 800" fill="none" xmlns="http://www.w3.org/2000/svg">
<rect width="800" height="800" fill="#F0F0F0"/>
<path d="M318.664 288.016C332.296 288.016 339.112 293.296 339.112 303.856C339.112 305.008 338.824 309.52 338.248 317.392C337.672 325.072 337.096 336.208 336.52 350.8C336.136 365.392 335.944 381.616 335.944 399.472C335.944 436.336 336.328 460.048 337.096 470.608C337.864 481.168 340.072 490.768 343.72 499.408C338.152 501.904 332.488 503.152 326.728 503.152C318.472 503.152 312.904 501.424 310.024 497.968C307.144 494.32 305.704 488.272 305.704 479.824C306.088 443.728 306.28 417.232 306.28 400.336C306.28 342.16 305.416 305.2 303.688 289.456C309.064 288.496 314.056 288.016 318.664 288.016ZM376.613 435.472V377.872C376.613 351.184 375.941 329.104 374.597 311.632C380.357 310.672 385.445 310.192 389.861 310.192C402.725 310.192 409.157 313.84 409.157 321.136C409.157 322.096 408.965 325.552 408.581 331.504C408.197 337.264 407.813 345.232 407.429 355.408C407.045 365.584 406.853 376.336 406.853 387.664C420.101 377.488 434.021 364.816 448.613 349.648C463.205 334.48 473.285 321.424 478.853 310.48C484.421 312.208 488.645 314.128 491.525 316.24C494.405 318.352 495.845 321.424 495.845 325.456C495.845 328.336 494.309 332.08 491.237 336.688C488.357 341.104 483.173 346.96 475.685 354.256C468.389 361.552 462.053 367.696 456.677 372.688C451.493 377.488 443.141 385.072 431.621 395.44C434.117 399.856 437.669 406.192 442.277 414.448C446.885 422.512 450.341 428.656 452.645 432.88C455.141 437.104 458.309 442.384 462.149 448.72C466.181 455.056 469.445 459.856 471.941 463.12C474.629 466.192 477.605 469.552 480.869 473.2C484.133 476.656 487.205 479.152 490.085 480.688C493.157 482.032 496.229 482.704 499.301 482.704C502.181 482.704 504.773 482.416 507.077 481.84C508.805 485.296 509.669 488.368 509.669 491.056C509.669 495.472 507.653 498.928 503.621 501.424C499.781 503.728 494.501 504.88 487.781 504.88C478.757 504.88 470.117 501.04 461.861 493.36C453.605 485.488 446.693 477.04 441.125 468.016C435.557 458.992 426.245 442.288 413.189 417.904C412.805 417.136 412.421 416.56 412.037 416.176C411.845 415.792 411.557 415.312 411.173 414.736C410.981 413.968 410.693 413.296 410.309 412.72L406.853 415.312V443.536C406.853 469.072 408.677 487.888 412.325 499.984C406.949 501.904 400.997 502.864 394.469 502.864C387.365 502.864 382.469 501.616 379.781 499.12C377.285 496.624 376.037 492.4 376.037 486.448C376.037 483.376 376.133 475.792 376.325 463.696C376.517 451.6 376.613 442.192 376.613 435.472Z" fill="#313131"/>
<path d="M515.5 283C515.5 286.6 514.5 289.6 512.5 292C510.5 294.4 507.9 295.6 504.7 295.6C501.7 295.6 494.8 295.2 484 294.4C473.2 293.6 465 293.2 459.4 293.2H416.5C393.7 293.2 373.5 294 355.9 295.6C355.3 292.6 355 289.6 355 286.6C355 283.4 355.9 280.5 357.7 277.9C359.5 275.3 362.2 274 365.8 274C366.4 274 372.7 274.3 384.7 274.9C396.7 275.7 407.1 276.1 415.9 276.1H458.5C483.9 276.1 502.6 275.4 514.6 274C515.2 275.8 515.5 278.8 515.5 283Z" fill="#313131"/>
</svg>
